HIERARCHY
ROOT Hips
{
  OFFSET 40.9192 92.6879 18.85
  CHANNELS 6 Xposition Yposition Zposition Zrotation Xrotation Yrotation
  JOINT LeftUpLeg
  {
    OFFSET 8.64259 1.95398 -2.38835
    CHANNELS 3 Zrotation Xrotation Yrotation
    JOINT LeftLeg
    {
      OFFSET 43.7702 0 0
      CHANNELS 3 Zrotation Xrotation Yrotation
      JOINT LeftFoot
      {
        OFFSET 40.6238 0 0
        CHANNELS 3 Zrotation Xrotation Yrotation
        JOINT LeftToeBase
        {
          OFFSET 12.7242 0 0
          CHANNELS 3 Zrotation Xrotation Yrotation
          End Site
          {
            OFFSET 0 0 0
          }
        }
      }
    }
  }
  JOINT RightUpLeg
  {
    OFFSET -8.2249 1.95398 -2.59336
    CHANNELS 3 Zrotation Xrotation Yrotation
    JOINT RightLeg
    {
      OFFSET 43.5653 0 0
      CHANNELS 3 Zrotation Xrotation Yrotation
      JOINT RightFoot
      {
        OFFSET 40.6238 0 0
        CHANNELS 3 Zrotation Xrotation Yrotation
        JOINT RightToeBase
        {
          OFFSET 12.7242 0 0
          CHANNELS 3 Zrotation Xrotation Yrotation
          End Site
          {
            OFFSET 0 0 0
          }
        }
      }
    }
  }
  JOINT Spine
  {
    OFFSET 0.165834 0.87714 6.61349
    CHANNELS 3 Zrotation Xrotation Yrotation
    JOINT Spine1
    {
      OFFSET 7.38963 1.71661e-005 0
      CHANNELS 3 Zrotation Xrotation Yrotation
      JOINT Spine2
      {
        OFFSET 11.9445 1.14441e-005 0
        CHANNELS 3 Zrotation Xrotation Yrotation
        JOINT Spine3
        {
          OFFSET 14.7254 4.19617e-005 0
          CHANNELS 3 Zrotation Xrotation Yrotation
          JOINT Spine4
          {
            OFFSET 10.9679 0 0
            CHANNELS 3 Zrotation Xrotation Yrotation
            JOINT RightShoulder
            {
              OFFSET 2.46616 -1.6653 3.69651
              CHANNELS 3 Zrotation Xrotation Yrotation
              JOINT RightArm
              {
                OFFSET 13.0012 0 0
                CHANNELS 3 Zrotation Xrotation Yrotation
                JOINT RightForeArm
                {
                  OFFSET 28.7848 1.52588e-005 0
                  CHANNELS 3 Zrotation Xrotation Yrotation
                  JOINT RightHand
                  {
                    OFFSET 26.5688 1.52588e-005 0
                    CHANNELS 3 Zrotation Xrotation Yrotation
                    End Site
                    {
                      OFFSET 0 0 0
                    }
                  }
                }
              }
            }
            JOINT LeftShoulder
            {
              OFFSET 2.38034 -1.29275 -3.7523
              CHANNELS 3 Zrotation Xrotation Yrotation
              JOINT LeftArm
              {
                OFFSET 16.3182 6.10351e-005 0
                CHANNELS 3 Zrotation Xrotation Yrotation
                JOINT LeftForeArm
                {
                  OFFSET 27.0901 0 0
                  CHANNELS 3 Zrotation Xrotation Yrotation
                  JOINT LeftHand
                  {
                    OFFSET 24.5451 1.52588e-005 0
                    CHANNELS 3 Zrotation Xrotation Yrotation
                    End Site
                    {
                      OFFSET 0 0 0
                    }
                  }
                }
              }
            }
            JOINT Neck
            {
              OFFSET 5.0226 -0.0266342 0
              CHANNELS 3 Zrotation Xrotation Yrotation
              JOINT Head
              {
                OFFSET 6.69363 2.86102e-005 0
                CHANNELS 3 Zrotation Xrotation Yrotation
                End Site
                {
                  OFFSET 0 0 0
                }
              }
            }
          }
        }
      }
    }
  }
}
MOTION
Frames:	7
Frame Time:	0.0416667
-46.904 97.3716 40.3898 -106.878 -83.0466 -106.501 -169.49 1.73686 93.4597 -10.0581 5.13677 -3.03452 62.9745 1.92163 2.36511 29.0324 0.421619 -2.32695 172.389 1.52941 88.0143 -10.6182 -7.66309 -0.311145 64.101 -2.43108 -1.33594 29.2236 0.181998 -2.62773 0.0898773 7.0987 -90.0167 12.6765 0.170564 -0.0533716 1.0056 0.168047 -0.0608305 -21.5297 0.178715 0.000354899 -1.517 0.178719 0.000355014 92.8158 -46.6549 -97.1228 30.3412 -9.90074 -0.029047 -3.72688 -26.3722 -39.9864 -6.02147 -0.990288 7.23284 -96.2987 -49.3826 69.2022 -22.6021 17.8234 -1.75642 0.871687 13.161 -29.3932 12.6354 1.21739 5.53498 12.0967 2.15722 0.976156 -6.69486 1.87344 1.81976 
-46.8958 97.3458 40.4241 -106.194 -83.0961 -105.777 -169.458 1.84707 93.5012 -10.1231 5.22559 -3.06758 63.1771 2.09688 2.55584 28.7174 0.207237 -2.57216 172.384 1.49301 88.0516 -10.4171 -7.66587 -0.265594 64.2302 -2.50003 -1.37884 29.0926 0.18192 -2.69631 0.0877544 7.0919 -90.0256 12.6901 0.162063 -0.0703184 1.01918 0.158813 -0.0773879 -21.516 0.175698 -0.0183579 -1.50341 0.175701 -0.0183668 92.8532 -46.4689 -97.0989 30.5196 -9.90332 -0.0518288 -3.9104 -26.2957 -39.986 -6.0867 -0.997429 7.25774 -96.3005 -49.423 69.2123 -22.6057 17.8055 -1.81616 0.897822 13.236 -29.3662 12.553 1.21783 5.59442 12.1772 2.21647 0.823542 -6.77444 1.95979 1.9942 
-46.9111 97.364 40.4085 -106.319 -83.0712 -105.912 -169.491 1.82668 93.4936 -10.1105 4.94962 -3.02393 63.0876 1.95578 2.11581 29.0996 0.46451 -2.23763 172.408 1.45659 88.0626 -10.3903 -7.68171 -0.294713 64.2007 -2.49213 -1.37394 29.055 0.194287 -2.91131 0.0928868 7.09244 -90.0184 12.6891 0.175758 -0.0575853 1.01811 0.173058 -0.065278 -21.5171 0.184935 -0.00210406 -1.50449 0.184946 -0.00209979 92.9099 -46.606 -96.9816 30.4048 -9.90643 -0.120458 -4.02419 -26.4379 -40.0333 -5.73835 -0.967087 7.19476 -96.4006 -49.4207 69.0635 -22.5233 17.7695 -1.77309 0.830994 13.098 -29.2965 12.4705 1.21365 5.59948 12.1328 2.17414 0.747871 -6.74294 1.93303 2.1655 
-46.8947 97.3668 40.3953 -106.797 -83.0966 -106.397 -169.519 1.80997 93.4627 -10.1755 5.04793 -2.99237 63.1093 1.98469 2.14808 28.9249 0.327079 -2.18833 172.391 1.46006 88.0349 -10.48 -7.75026 -0.305502 64.1255 -2.46185 -1.3561 29.1688 0.19069 -2.80779 0.0811841 7.09183 -90.0238 12.6835 0.149926 -0.0651485 1.01254 0.146918 -0.0716973 -21.5227 0.162573 -0.0170837 -1.51003 0.162578 -0.0170824 92.7536 -46.5201 -97.2494 30.4605 -9.84914 0.00910461 -3.75645 -26.3312 -39.8388 -6.19655 -0.994756 7.08009 -96.4316 -49.6387 69.0875 -22.3762 17.784 -1.74333 0.820838 13.0829 -29.3489 12.6127 1.20818 5.48155 12.1703 2.27793 1.03506 -6.63772 1.97789 1.89479 
-46.9029 97.3655 40.4175 -106.481 -83.1295 -106.055 -169.535 1.87977 93.4687 -10.1766 5.30925 -2.98407 62.8916 1.86554 2.55113 29.3484 0.675975 -2.48797 172.354 1.46157 88.0411 -10.4082 -7.65265 -0.244751 64.2384 -2.52002 -1.39184 29.063 0.167265 -2.4701 0.0825852 7.08845 -90.0257 12.6919 0.1518 -0.0692563 1.02096 0.148608 -0.0758841 -21.5143 0.165592 -0.0204405 -1.50161 0.165593 -0.0204417 92.7994 -46.4861 -97.183 30.5304 -9.8968 -0.0335443 -3.72907 -26.2058 -39.801 -6.10016 -0.970793 6.84016 -96.402 -49.5242 69.094 -22.4504 17.8118 -1.77545 0.829551 13.1205 -29.3477 12.6107 1.20564 5.46293 12.2203 2.23048 0.9818 -6.73371 1.94022 1.9365 
-46.9166 97.3561 40.403 -106.558 -83.0715 -106.208 -169.555 1.78027 93.3947 -10.0743 5.26758 -2.99459 63.1072 2.09783 2.69401 28.707 0.161006 -2.18418 172.363 1.54518 87.9957 -10.5565 -7.7643 -0.290402 64.0761 -2.43456 -1.34106 29.3189 0.19036 -2.73825 0.0943363 7.08425 -90.0058 12.6835 0.184655 -0.0333323 1.01253 0.183007 -0.041426 -21.5228 0.186131 0.0237106 -1.51012 0.186134 0.0237064 92.8437 -46.5591 -97.0971 30.5901 -9.90877 0.00891454 -3.69688 -26.2742 -39.8306 -6.36933 -0.991585 6.82658 -96.3313 -49.3758 69.1514 -22.4962 17.8341 -1.78802 0.826525 13.115 -29.3477 12.55 1.18696 5.36128 12.1717 2.15872 0.817751 -6.68352 1.90606 1.99674 
-46.9563 97.3755 40.4063 -107.092 -83.0536 -106.808 -169.474 1.5383 93.4155 -9.69826 5.31715 -3.09364 62.7759 1.98292 2.92886 29.2445 0.669419 -3.28268 172.357 1.52191 87.9489 -10.6742 -7.71895 -0.328701 64.3425 -2.52575 -1.38969 29.0715 0.183611 -2.73197 0.0840344 7.08101 -89.9969 12.6866 0.168476 -0.0135671 1.01563 0.167715 -0.0209796 -21.5196 0.164769 0.0376963 -1.50696 0.164761 0.0376846 92.6926 -46.6216 -97.3282 30.5095 -9.86029 0.042386 -3.59618 -26.2457 -39.7276 -6.19425 -0.971305 6.73767 -96.5151 -49.6063 68.9537 -22.2421 17.7984 -1.55077 0.920771 13.0768 -29.5683 12.4202 1.19111 5.47906 12.1347 2.28196 0.782791 -6.64018 2.03278 2.1814 
